<svg id="Layer_1" data-name="Layer 1" xmlns="http://www.w3.org/2000/svg" width="414" height="430" viewBox="0 0 414 430"><path d="M241.3582,234.2388H230.7207c53.6725-10.956,94.1636-58.63,94.1272-116.29A117.9843,117.9843,0,0,0,207.1733-.3045h-.0414C141.51-.2016,88.0325,53.2761,87.929,119.0222c.6871,56.8015,41.6676,104.275,95.4957,115.2166h-10.519C78.4067,234.8175,2.4565,309.26-.0224,404.523a25.275,25.275,0,0,0,24.7659,25.82H388.508c.2067.02.4134.02.6406.02a25.1618,25.1618,0,0,0,25.1585-24.89C413.2121,311.222,335.6507,234.4042,241.3582,234.2388Zm-81.3829-68.3906a65.8013,65.8013,0,0,1-19.2714-46.97,67.8792,67.8792,0,0,1,66.4489-68.0391,67.2736,67.2736,0,0,1-.3718,134.5293A65.7773,65.7773,0,0,1,159.9753,165.8482ZM54.6116,379.1992c13.22-54.2414,61.3469-93.3213,118.3357-92.1852H242.04a120.4823,120.4823,0,0,1,117.6541,92.1852Z"/></svg>