<svg id="Layer_1" data-name="Layer 1" xmlns="http://www.w3.org/2000/svg" viewBox="0 0 453 414"><path d="M428.41,274.12a80.73,80.73,0,0,0-57.78-24,81.73,81.73,0,0,0-20,2.45l-65.76-114A81.63,81.63,0,0,0,308,81.66,80.74,80.74,0,0,0,283.88,24,81.73,81.73,0,0,0,144.42,81.66a81.36,81.36,0,0,0,23.06,57l-65.71,114A81.94,81.94,0,0,0,24,274.12,81.67,81.67,0,0,0,81.78,413.61a81.23,81.23,0,0,0,57.81-24,82.82,82.82,0,0,0,20.75-35.31H292a81.75,81.75,0,1,0,136.38-80.21ZM118.68,332a36.74,36.74,0,0,1-36.9,36.89A37,37,0,1,1,118.68,332Zm289,0a36.94,36.94,0,1,1-10.82-26.2A36.6,36.6,0,0,1,407.64,332ZM226.2,163.44a81.73,81.73,0,0,0,20-2.45L279,217.93,311.94,275A81,81,0,0,0,292,309.56H160.34a82.15,82.15,0,0,0-20-34.53l65.86-114A81.73,81.73,0,0,0,226.2,163.44Zm-37-81.78a37.15,37.15,0,1,1,10.94,26.2A36.6,36.6,0,0,1,189.19,81.66Z"/></svg>