<svg id="Layer_1" data-name="Layer 1" xmlns="http://www.w3.org/2000/svg" width="387" height="385" viewBox="0 0 387 385"><g id="noun_edit_1359758" data-name="noun edit 1359758"><path id="Path_194" data-name="Path 194" d="M239.4656,20.3766,15.89,243.9527A25.5006,25.5006,0,0,0,8.5018,259.83L.2878,357.3447A25.5007,25.5007,0,0,0,23.5424,384.909q1.0315.0873,2.0678.091h1.62l99.4914-6.3671a25.5,25.5,0,0,0,16.4441-7.3877L366.7419,147.6691a70.1024,70.1024,0,0,0,.0275-99.14l-.0275-.0275L338.2926,20.3766A70.1025,70.1025,0,0,0,239.4656,20.3766ZM113.89,328.4094l-60.4141,3.8234L58.45,273.4064l166.5966-166.58L280.2439,161.91Zm216.7068-216.723-14.338,14.338L261.0617,70.8271,275.4,56.489a19.1174,19.1174,0,0,1,27.0235,0L330.597,84.6629A19.1173,19.1173,0,0,1,330.5971,111.6864Z"/></g></svg>