<svg id="Layer_1" data-name="Layer 1" xmlns="http://www.w3.org/2000/svg" width="426" height="511" viewBox="0 0 426 511"><path d="M282.3756,0H66.4425A66.2382,66.2382,0,0,0,.283,66.16v378.781a66.2381,66.2381,0,0,0,66.16,66.1595h293.04a66.2384,66.2384,0,0,0,66.16-66.1595V143.3288ZM285.68,125.9576V77.9336l55.481,55.2324H294.4382C290.4313,133.2285,286.0318,129.9648,285.68,125.9576Zm8.0971,59.6737c.31,0,.62-.0208.93-.0208h78.3875V444.92a13.6325,13.6325,0,0,1-13.6118,13.5912H66.4425A13.6194,13.6194,0,0,1,52.8307,444.92V66.16A13.6373,13.6373,0,0,1,66.4425,52.548h166.69v73.5333A60.8782,60.8782,0,0,0,293.7774,185.6313Z"/></svg>