<svg id="Layer_1" data-name="Layer 1" xmlns="http://www.w3.org/2000/svg" viewBox="0 0 512 512"><path d="M345.34,180.29a23.44,23.44,0,0,0-31.95,2.48l-80.6,94-32.22-43a23.4,23.4,0,1,0-37.43,28.08l49.71,66.28a23.21,23.21,0,0,0,17.82,9.35q.45,0,.9,0a23.35,23.35,0,0,0,17.78-8.2l99.43-116,.14-.17a23.4,23.4,0,0,0-3.58-32.89Z"/><path d="M489,73.58c-.09-.48-.2-1-.32-1.45a23.42,23.42,0,0,0-28.49-16.8A197.3,197.3,0,0,1,410.3,61.5,198.35,198.35,0,0,1,272.69,7.27a23.35,23.35,0,0,0-32.45,0A198.44,198.44,0,0,1,103.49,61.5h-1a194.82,194.82,0,0,1-49.83-6.16c-.48-.12-1-.23-1.45-.33A23.44,23.44,0,0,0,23.84,73.62a369.88,369.88,0,0,0-6.26,69A420,420,0,0,0,245.42,508.82a23.48,23.48,0,0,0,11,2.75h0a23.44,23.44,0,0,0,11-2.75A420,420,0,0,0,495.29,142.53,370.33,370.33,0,0,0,489,73.58ZM448.5,142.44a373,373,0,0,1-192.07,319,373,373,0,0,1-192.06-319,337.07,337.07,0,0,1,2-36.74,251.34,251.34,0,0,0,35.91,2.59h.84A248.4,248.4,0,0,0,256.43,55.16a248.42,248.42,0,0,0,153.32,53.13h.84a251.44,251.44,0,0,0,35.94-2.59A339.6,339.6,0,0,1,448.5,142.44Z"/></svg>